<?xml version="1.0" encoding="UTF-8" standalone="no"?>
<!-- Created with Inkscape (http://www.inkscape.org/) -->

<svg
   xmlns:dc="http://purl.org/dc/elements/1.1/"
   xmlns:cc="http://creativecommons.org/ns#"
   xmlns:rdf="http://www.w3.org/1999/02/22-rdf-syntax-ns#"
   xmlns:svg="http://www.w3.org/2000/svg"
   xmlns="http://www.w3.org/2000/svg"
   xmlns:sodipodi="http://sodipodi.sourceforge.net/DTD/sodipodi-0.dtd"
   xmlns:inkscape="http://www.inkscape.org/namespaces/inkscape"
   version="1.1"
   id="svg64"
   width="1080"
   height="1076"
   viewBox="0 0 1080 1076"
   sodipodi:docname="logo.svg"
   inkscape:version="0.92.1 r15371">
  <metadata
     id="metadata70">
    <rdf:RDF>
      <cc:Work
         rdf:about="">
        <dc:format>image/svg+xml</dc:format>
        <dc:type
           rdf:resource="http://purl.org/dc/dcmitype/StillImage" />
        <dc:title></dc:title>
      </cc:Work>
    </rdf:RDF>
  </metadata>
  <defs
     id="defs68" />
  <sodipodi:namedview
     pagecolor="#ffffff"
     bordercolor="#666666"
     borderopacity="1"
     objecttolerance="10"
     gridtolerance="10"
     guidetolerance="10"
     inkscape:pageopacity="0"
     inkscape:pageshadow="2"
     inkscape:window-width="1920"
     inkscape:window-height="1016"
     id="namedview66"
     showgrid="false"
     inkscape:zoom="0.51324386"
     inkscape:cx="742.09645"
     inkscape:cy="403.72873"
     inkscape:window-x="0"
     inkscape:window-y="867"
     inkscape:window-maximized="1"
     inkscape:current-layer="svg64" />
  <circle
     style="fill:#ffe680;stroke:none"
     id="path4636"
     cx="557.23999"
     cy="491.48254"
     r="450.07846"
     inkscape:export-xdpi="96"
     inkscape:export-ydpi="96" />
  <g
     id="g4649"
     transform="translate(-2.1203187,8.2092717)">
    <path
       id="path4613"
       d="m 392.91884,781.10595 c -2.83672,-0.69393 -5.77323,-2.53047 -7.27682,-4.55098 -2.90726,-3.9068 -3.10868,-6.76327 -3.11711,-44.20551 l -0.008,-35.55927 h 57.31556 57.31556 l -0.18481,38.02961 -0.18481,38.02959 -2.03166,2.89018 c -1.11742,1.58962 -3.08919,3.51143 -4.38171,4.27075 -2.30185,1.35219 -3.30396,1.3828 -48.86358,1.49113 -25.58244,0.0607 -47.44462,-0.11709 -48.58262,-0.3955 z"
       style="fill:#008000;stroke-width:0.67410916"
       inkscape:connector-curvature="0" />
    <path
       id="path4611"
       d="m 641.97312,719.00528 c -4.89821,-1.32788 -20.27464,-13.63751 -31.65124,-25.33859 -9.80121,-10.08066 -15.73297,-17.41267 -22.80404,-28.18727 -8.83238,-13.45833 -13.7558,-23.52768 -18.80481,-38.45953 -9.58248,-28.3389 -11.06235,-66.02225 -3.77254,-96.06055 1.11161,-4.58063 7.40794,-23.38141 9.34068,-27.89128 13.30833,-31.05381 37.5681,-60.74266 63.59276,-77.824 7.29824,-4.79024 9.93455,-5.54798 12.97997,-3.7308 2.26696,1.35273 2.81131,2.18512 6.09638,9.32232 2.63125,5.71666 7.55723,10.86548 12.73715,13.31329 5.23588,2.47432 13.56301,3.65884 18.63986,2.6515 11.77177,-2.33576 21.16501,-11.12024 24.25944,-22.68733 1.96961,-7.36223 0.96802,-12.31072 -6.35456,-31.39684 -4.53352,-11.81642 -7.7594,-21.92549 -8.91105,-27.92476 -0.42705,-2.22456 -1.04022,-5.25805 -1.36258,-6.74109 -3.25884,-14.99237 -4.25228,-37.03671 -2.33902,-51.90641 2.23649,-17.38225 3.2337,-22.06317 7.02536,-32.97773 1.89944,-5.4675 7.38473,-18.02722 10.62214,-24.32154 4.73124,-9.1987 18.37804,-27.49954 21.91954,-29.39489 0.8152,-0.43631 3.08162,-0.81641 5.0364,-0.84467 5.84608,-0.0845 9.33041,3.44798 10.89731,11.04787 3.51602,17.05404 10.30477,33.69345 24.33184,59.63823 14.8337,27.43685 31.62724,53.4908 72.12833,111.90212 28.05103,40.45561 33.57522,49.15875 42.36048,66.7368 10.53172,21.07251 18.99745,48.16197 22.76821,72.85536 2.23832,14.65827 2.35514,38.0974 0.26533,53.23229 -3.96861,28.74156 -13.93624,54.05366 -31.17961,79.17859 -8.60359,12.53598 -25.92766,30.06132 -39.14916,39.60391 -9.74007,7.02988 -11.85091,7.6627 -15.01288,4.50071 -2.1829,-2.18291 -1.93294,-4.23201 1.48796,-12.1966 5.39017,-12.54967 7.72509,-24.40979 7.80793,-39.66028 0.062,-11.47479 -0.83562,-18.45788 -3.81404,-29.6608 -5.10914,-19.21734 -12.06022,-32.89344 -29.63714,-58.31044 -36.02844,-52.09887 -48.28543,-73.00202 -54.30852,-92.61834 -2.49286,-8.11876 -4.27999,-10.41445 -8.55344,-10.98764 -5.07193,-0.6803 -7.37792,1.29954 -15.06957,12.9383 -4.26078,6.44724 -7.00851,12.06372 -9.41286,19.24027 -2.08306,6.21743 -3.04266,13.10679 -4.69106,33.6773 -1.8335,22.88076 -5.93755,29.73958 -26.60958,44.47133 -8.18422,5.83242 -21.90187,19.66955 -27.41952,27.65834 -10.82592,15.67435 -16.36299,32.09398 -17.21001,51.03447 -0.68186,15.24695 1.69701,27.94736 8.15821,43.55603 2.78373,6.7248 2.95239,8.37498 1.09691,10.7338 -1.5638,1.98809 -3.05844,2.48636 -5.48496,1.82855 z"
       style="fill:#008000;stroke-width:0.67410916"
       inkscape:connector-curvature="0" />
    <path
       id="path110"
       d="m 214.08748,664.38579 c -5.31133,-2.12731 -8.18716,-6.49134 -8.18716,-12.42386 0,-4.76084 0.0437,-4.84164 14.29186,-26.44248 6.41374,-9.72348 16.50998,-25.04261 22.43609,-34.04251 5.92611,-8.9999 17.27468,-26.2223 25.21904,-38.272 24.53587,-37.2151 32.35185,-49.15579 33.14134,-50.63096 1.44897,-2.70741 0.18738,-2.94159 -17.76611,-3.29777 -16.56697,-0.32868 -17.06235,-0.37878 -19.92052,-2.01508 -6.4424,-3.68826 -8.22002,-12.02809 -3.97855,-18.66575 1.20497,-1.88571 14.02147,-19.2625 28.48111,-38.61509 79.93382,-106.98235 83.30542,-111.56286 83.11223,-112.91237 -0.18562,-1.29663 -0.79103,-1.39678 -10.6455,-1.7611 -11.25045,-0.41594 -12.92859,-0.87302 -16.30426,-4.44082 -2.39074,-2.5268 -3.24665,-4.96078 -3.23679,-9.20454 0.0106,-4.54591 0.82813,-5.91737 13.13473,-22.03319 5.52094,-7.22982 12.80233,-16.78532 16.18087,-21.23444 48.63586,-64.04749 59.46491,-78.14104 61.58237,-80.14677 2.62775,-2.48909 7.51049,-3.78565 11.18887,-2.97108 5.25267,1.16321 2.99876,-1.58164 55.30952,67.35648 8.52748,11.238 19.0964,25.1453 23.48647,30.90512 18.00053,23.61687 17.97125,23.57041 17.97125,28.5123 0,4.92843 -2.74758,9.51313 -7.07815,11.81084 -1.51221,0.80235 -4.65794,1.14688 -12.47102,1.36587 -10.28746,0.28834 -11.86753,0.66247 -11.14404,2.6387 0.16591,0.45318 17.48006,23.77931 38.47588,51.83584 20.99589,28.05653 38.32986,51.41742 38.5201,51.91309 0.19131,0.49853 -1.43019,2.78921 -3.6288,5.12639 -21.97881,23.36395 -38.02106,52.04625 -46.28776,82.75887 -4.85009,18.01918 -6.57646,31.27526 -6.6282,50.89524 -0.0501,18.99336 1.12653,29.95631 4.95599,46.17648 3.30867,14.01434 10.72852,34.32426 16.00775,43.81709 1.13404,2.03918 2.06739,3.93511 2.0741,4.21318 0.0183,0.76049 -336.39098,0.54602 -338.29271,-0.21568 z"
       style="fill:#008000;stroke-width:0.67410916"
       inkscape:connector-curvature="0" />
    <path
       id="path4615"
       d="m 737.39648,218.44727 c -10.04936,0 -32.26055,36.48371 -40.25195,66.11523 -3.00005,11.12395 -3.97928,20.72558 -3.98828,39.09961 -0.0128,26.96295 2.23076,38.96437 13.14844,70.33008 8.13611,23.37442 8.33869,27.12434 2.04297,37.86719 -6.23326,10.63625 -15.76114,15.31718 -28.65625,14.07812 -10.81192,-1.03888 -17.32264,-5.95012 -23.27149,-17.55078 -2.56558,-5.00308 -5.06199,-7.30664 -7.91992,-7.30664 -10.50802,0 -41.40275,27.75147 -57.48047,51.63281 -29.0421,43.13822 -37.99518,95.63217 -24.92383,146.12891 8.5402,32.99215 32.05815,67.13245 63.27539,91.85351 18.17163,14.39018 22.57205,10.91101 14.77344,-11.68359 -9.6418,-27.93479 -5.80097,-59.58113 10.21875,-84.20703 7.24098,-11.13098 15.59781,-19.58456 37.05274,-37.48242 5.53679,-4.61882 11.42459,-11.02352 13.08398,-14.23243 1.65938,-3.2089 4.29911,-16.96572 5.86523,-30.57031 2.26405,-19.66745 4.02225,-27.1307 8.58399,-36.42578 5.96987,-12.16434 13.72017,-21.78734 17.9375,-22.37695 0.02,-0.003 0.0388,-0.002 0.0586,-0.004 0.13316,-0.012 0.26354,-0.0171 0.39453,-0.0195 3.80576,0.0556 8.16637,5.92094 10.84766,14.60742 4.10847,13.31001 16.57254,34.84649 43.20898,74.66602 27.1364,40.56696 34.3957,54.19679 39.67579,74.49804 4.54298,17.46713 3.15561,46.80808 -3.05665,64.67774 -8.68419,24.98025 2.77626,22.41756 32.24024,-7.20703 36.48884,-36.68769 51.68064,-74.19315 51.58984,-127.36524 -0.0821,-48.11265 -13.92909,-89.42359 -45.78515,-136.58203 -89.4176,-132.37021 -106.6781,-161.91212 -115.8711,-198.32617 -2.47767,-9.81421 -6.43781,-14.21484 -12.79297,-14.21484 z"
       style="fill:#aa0000;stroke:#aa0000;stroke-width:1.94839156"
       inkscape:connector-curvature="0" />
    <path
       id="path4623"
       d="m 439.18555,186.29883 c -0.74827,-0.0225 -1.46318,0.052 -2.1211,0.22851 -2.6799,0.71907 -20.52575,22.43721 -47.61133,57.93946 -23.829,31.23374 -44.65854,59.10662 -46.28906,61.9414 -2.38631,4.14877 -2.51926,6.13405 -0.67773,10.17578 2.34835,5.15405 4.47898,5.99457 20.44336,8.06446 5.09017,0.65997 9.2397,1.80296 9.2207,2.54101 -0.019,0.73805 -25.42644,35.44396 -56.46094,77.12305 -31.0345,41.67907 -56.95745,77.45049 -57.60547,79.49219 -0.64801,2.04172 0.14841,5.7368 1.76954,8.21093 3.33611,5.09155 11.31349,6.94562 30.01171,6.97852 6.6976,0.0118 12.17774,0.88544 12.17774,1.94141 0,1.05595 -21.20453,34.1552 -47.12109,73.55273 -25.91657,39.39751 -47.48191,73.50582 -47.92188,75.79688 -1.66858,8.68881 2.54072,12.15622 15.66406,12.90234 6.68711,0.38019 83.34221,0.85994 170.34375,1.06641 l 158.1836,0.375 L 545.23828,651.5 c -11.50952,-25.38369 -15.79502,-46.76647 -15.91601,-79.41797 -0.0874,-23.58167 0.69269,-32.42416 4.03711,-45.78711 7.80885,-31.20138 23.36711,-61.68054 43.09179,-84.41601 4.64288,-5.35161 7.57151,-10.38659 6.79883,-11.68946 -0.74658,-1.25887 -17.42192,-23.93304 -37.05664,-50.38672 -19.63474,-26.45368 -36.18229,-49.35328 -36.77148,-50.88867 -1.24586,-3.2467 4.35105,-5.18676 15.08398,-5.22656 3.94202,-0.0146 8.54652,-1.40392 10.23047,-3.08789 7.33796,-7.33795 4.69627,-11.99974 -40.29102,-71.11719 -23.84344,-31.33248 -45.54361,-58.5742 -48.22265,-60.53711 -2.24278,-1.64326 -4.79231,-2.57904 -7.03711,-2.64648 z m -55.54297,511.45312 0.23242,14.59571 v 23.0957 c 0,23.07807 -0.30731,33.99384 2.77344,39.26172 0.22333,0.6469 0.4623,1.11418 0.72461,1.37695 0.17405,0.17436 0.44598,0.3473 0.78906,0.51758 3.47905,3.22798 9.7566,3.06441 21.10742,3.44141 23.94086,0.79515 51.15013,0.22399 67.92774,-1.09571 5.77807,-0.36841 10.10991,-0.79709 11.89062,-1.26562 0.28817,-0.0758 0.52357,-0.16534 0.78125,-0.24805 1.6328,-0.339 2.71526,-0.69802 3.11524,-1.07422 2.20574,-2.07458 2.9462,-9.3462 3.45312,-35.29883 0.0913,-3.61228 0.15617,-7.23465 0.19922,-10.92578 l 0.54297,-32.38086 h -0.29883 -56.35352 -0.26562 -56.38672 z"
       style="fill:#005500;stroke-width:1.94839156"
       inkscape:connector-curvature="0" />
    <path
       inkscape:connector-curvature="0"
       id="path4632"
       d="m 408.55296,779.71682 c -15.93553,-0.91994 -19.62474,-1.74266 -21.9194,-4.88818 -2.14793,-2.94439 -2.75903,-11.89904 -2.75903,-40.42913 v -36.64704 h 56.50336 56.50335 l -0.1927,28.73877 c -0.10597,15.80633 -0.76356,33.50141 -1.46129,39.32241 -1.09722,9.15386 -1.92663,10.75677 -6.13958,11.86526 -7.49049,1.97086 -59.0816,3.27636 -80.53471,2.03791 z"
       style="fill:#005500;stroke-width:1.94839156" />
    <path
       inkscape:connector-curvature="0"
       id="path4634"
       d="m 408.55296,779.70721 c -15.94264,-0.91235 -19.62372,-1.73164 -21.9194,-4.87857 -2.14793,-2.94439 -2.75903,-11.89904 -2.75903,-40.42913 v -36.64704 h 56.50336 56.50335 l -0.017,28.73877 c -0.0229,38.77834 -1.35773,49.08902 -6.60551,51.02142 -5.69759,2.09804 -58.5748,3.51828 -81.70583,2.19455 z"
       style="fill:#005500;stroke-width:1.94839156" />
  </g>
</svg>
